<?xml version="1.0" encoding="UTF-8" standalone="no"?>
<!DOCTYPE svg PUBLIC "-//W3C//DTD SVG 1.1//EN" "http://www.w3.org/Graphics/SVG/1.1/DTD/svg11.dtd">
<svg xmlns="http://www.w3.org/2000/svg" xmlns:xlink="http://www.w3.org/1999/xlink" version="1.1"
	width="1280" height="1024" viewBox="0 0 1280 1024" xml:space="preserve">
<desc>Created with Fabric.js 5.3.0</desc>
<defs>
    <linearGradient id="SVGID_3_427372" gradientUnits="userSpaceOnUse" x1="520.7097442" y1="605.0568139" x2="373.4039477" y2="888.140127">
        <stop offset="0%" style="stop-color:rgb(6,28,55);stop-opacity: 1"/>
        <stop offset="100%" style="stop-color:rgb(14,15,27);stop-opacity: 1"/>
    </linearGradient>
    <linearGradient id="SVGID_5_427373" gradientUnits="userSpaceOnUse" x1="490.0332289" y1="531.5689948" x2="243.4099439" y2="743.6336029">
        <stop offset="0%" style="stop-color:rgb(6,28,55);stop-opacity: 1"/>
        <stop offset="100%" style="stop-color:rgb(14,15,27);stop-opacity: 1"/>
    </linearGradient>
    <linearGradient id="SVGID_6_427374" gradientUnits="userSpaceOnUse" x1="708.9217315" y1="540.4059307" x2="668.9464433" y2="380.5047779">
        <stop offset="0%" style="stop-color:rgb(10,140,186);stop-opacity: 1"/>
        <stop offset="100%" style="stop-color:rgb(4,74,118);stop-opacity: 1"/>
    </linearGradient>
    <linearGradient id="SVGID_7_427375" gradientUnits="userSpaceOnUse" x1="473.6271203" y1="367.9841014" x2="269.6835481" y2="589.9558346">
        <stop offset="0%" style="stop-color:rgb(6,28,55);stop-opacity: 1"/>
        <stop offset="100%" style="stop-color:rgb(14,15,27);stop-opacity: 1"/>
    </linearGradient>
    <linearGradient id="SVGID_8_427376" gradientUnits="userSpaceOnUse" x1="407.1430348" y1="325.0944823" x2="138.1641972" y2="529.0851444">
        <stop offset="0%" style="stop-color:rgb(6,28,55);stop-opacity: 1"/>
        <stop offset="100%" style="stop-color:rgb(14,15,27);stop-opacity: 1"/>
    </linearGradient>
    <linearGradient id="SVGID_11_427377" gradientUnits="userSpaceOnUse" x1="198.6184519" y1="384.5585695" x2="380.0268227" y2="106.2488329">
        <stop offset="0%" style="stop-color:rgb(10,140,186);stop-opacity: 1"/>
        <stop offset="100%" style="stop-color:rgb(4,74,118);stop-opacity: 1"/>
    </linearGradient>
    <linearGradient id="SVGID_13_427378" gradientUnits="userSpaceOnUse" x1="388.3035539" y1="607.8686445" x2="392.4792494" y2="657.9769902">
        <stop offset="0%" style="stop-color:rgb(10,140,186);stop-opacity: 1"/>
        <stop offset="100%" style="stop-color:rgb(4,74,118);stop-opacity: 1"/>
    </linearGradient>
    <linearGradient id="SVGID_427379" gradientUnits="userSpaceOnUse" x1="0" y1="0" x2="0" y2="876">
        <stop offset="0%" style="stop-color:rgb(91,36,122);stop-opacity: 1"/>
        <stop offset="100%" style="stop-color:rgb(27,206,223);stop-opacity: 1"/>
    </linearGradient>
</defs>
<g transform="matrix(1 0 0 1 640 512)" id="background-logo">
    <rect style="fill: rgb(255,255,255); fill-opacity: 0;" x="-640" y="-512" width="1280" height="1024"/>
</g>
<g transform="matrix(1.9211538461538462 0 0 1.9211538461538462 445.7717989002357 444.6841007861624)" id="logo-logo">
    <g>
        <g transform="matrix(0.2122975289267371 0 0 0.21229752892673712 46.782184640877176 47.00121417661751)">
            <path style="fill: rgb(170,223,235);" transform="translate(-720.361418547448, -721.3931288319156)" d="M 694.9353657 778.6598692 C 733.3771585000001 722.725455 757.8687548 658.4256233 777.7667867 593.5372696 C 782.7116333 577.4119151 787.487686 560.9957195999999 796.2686735 546.5952738 C 805.049661 532.1948279 818.5318626 519.7868267 835.0332645999999 516.2965095 C 863.4532773 510.28521879999994 891.8242243 533.4462271 900.6543051 561.1204406999999 C 909.4843859 588.7946541999999 903.2490142 618.9798392999999 894.0267351 646.5258369999999 C 867.5317061 725.6637202 816.1928184 796.2830591 749.0871794 845.8978110999999 C 719.0855467 868.0796066999999 685.9821845 886.0230886999999 651.107839 899.2671259999998 C 633.2969372 906.0310736999999 615.0208555 911.5714738999999 596.4503952 915.8284346999999 C 587.1488888 917.9606461999999 577.7025418 919.2601287999998 568.386522 921.2469549999998 C 561.5486959 922.7052571999999 554.6677098 926.6219723999999 547.9246829 927.3713260999998 C 543.2080323 927.8953939999998 537.82903 925.7078491999998 536.2635361 921.2278185999998 C 535.0988927 917.8949143999997 536.3092513 914.1012711999997 538.4868012000001 911.3222568999997 C 540.6643511000001 908.5432425999998 543.6901606 906.5781443999997 546.6576509 904.6653854999997 C 566.0994370000001 892.1337641999997 586.6483415 882.4874562999997 605.6450374 869.5000556999997 C 640.9073777 845.3923818999997 670.7978611 813.7809464999997 694.9353656999999 778.6598691999998 Z"/>
        </g>
        <g transform="matrix(0.2122975289267371 0 0 0.21229752892673712 -10.828326993146788 57.97342769024442)">
            <path style="fill: url(#SVGID_3_427372);" transform="translate(-448.99456879996416, -773.0763187828143)" d="M 630.4472705 628.9965305 C 560.7982528 667.7172453 490.70981069999993 706.6365873 415.40868109999997 732.7137669 C 340.1075515 758.7909465 258.5588541999999 771.6049985 180.28417309999998 756.6599753 C 207.21278559999996 817.2224901000001 269.1393081 853.5787883 328.94393819999993 882.151058 C 376.9976411999999 905.1091957 428.8548091999999 926.1160617 481.8437124999999 920.7859129000001 C 545.2600131999999 914.4068764000001 598.5772658 871.6748004000001 644.7809616999999 827.7710696000001 C 665.3885459999999 808.1893008000002 685.6626918 787.6922571000001 699.8656047 763.0671630000002 C 714.0685176 738.4420689000002 721.7763627999999 708.9651189000001 715.4975486 681.2397787000002 C 709.2187343999999 653.5144385000002 686.901877 628.6128996000002 658.7691275999999 624.5304481000002"/>
        </g>
        <g transform="matrix(0.2122975289267371 0 0 0.21229752892673712 57.835314036507725 5.353445870904295)">
            <path style="fill: rgb(6,28,55);" transform="translate(-772.4257522752558, -525.216713042895)" d="M 856.305864 313.6395431 C 857.6512193000001 307.83298770000005 859.6478616 301.089058 865.255627 299.0694336 C 873.1884273000001 296.21245200000004 880.1320885 305.0410943 883.7613951 312.6516001 C 921.8862904 392.5979261 930.4976822 486.2207607 907.5959502 571.7802881 C 911.7313958999999 551.4426540000001 897.0227468999999 530.2039412 877.4257031999999 523.3718734 C 857.8286595 516.5398056 835.3560934 522.3326756 818.6804550999999 534.6876082 C 792.4132719999999 554.1491896 783.0198482999999 582.8887815 772.8337415999999 612.2889399000001 C 760.9327863 646.6386652000001 745.7981355999999 679.8677217000001 727.6839706999999 711.3864678000001 C 718.4739076 727.4120194000001 707.1482983999999 744.0937534000001 689.6074763999999 749.9215444000001 C 669.0970186999999 756.7359777000001 645.4062969999999 745.3384392000002 634.1218096999999 726.9054329000002 C 622.8373223999998 708.4724266000002 622.4808916999998 684.8969717000002 628.7481182999999 664.2127447000001 C 651.1277254999999 590.3515448000002 732.0461916999999 546.3005708000002 776.2919237999998 486.2683568000001 C 814.1732244999998 434.8713468000001 841.8842856999999 375.8830992000001 856.3058642999998 313.6395431000001 Z"/>
        </g>
        <g transform="matrix(0.2122975289267371 0 0 0.21229752892673712 -27.323633555403717 32.74255527195322)">
            <path style="fill: url(#SVGID_5_427373);" transform="translate(-371.2955647387847, -654.2295637318016)" d="M 430.9398158 641.491502 C 428.07576850000004 656.7011506 418.179771 670.7684213 403.7869933 676.7088526 C 387.14088300000003 683.5793176 367.1000103 678.4961339 354.1451704 666.466735 C 348.7080435 661.4180143 345.7019992 650.5172619 339.7909183 646.8550584 C 332.6773589 642.4478608 319.2513858 649.7926241 311.74829009999996 651.6617523 C 248.84840569999997 667.3309987 189.32126439999996 656.6605866 126.14039299999996 653.2868239 C 124.20431119999996 675.3779992999999 129.41811049999995 698.0394792999999 140.81367319999995 717.0634014 C 150.88736359999996 733.8805701 169.60572729999996 755.3221093999999 190.21113039999994 757.7874736 C 215.82923279999994 760.8525897 241.95277269999994 763.8871103 267.90118029999996 763.1139725 C 384.91637579999997 759.6274798000001 500.27437309999993 714.6012431 588.711116 637.8962634000001 C 602.2719076999999 626.1344080000001 616.1322514 611.7394399000001 616.8178068 593.8013788000001 C 617.7119269 570.4026841000001 597.4867246 546.7339478000001 574.0605869999999 545.3562138000001 C 545.8045616999999 543.6944252000001 521.1398068999999 557.8386664000001 499.25025189999997 574.1867700000001 C 477.13115159999995 590.7063084000001 454.4926534 609.4548267000001 427.0633094 612.5819793000002 C 431.71482849999995 621.4518951000001 432.7820882 631.7080332000002 430.9398157 641.4915021000002 Z"/>
        </g>
        <g transform="matrix(0.2122975289267371 0 0 0.21229752892673712 39.20743724021224 -15.751211946883416)">
            <path style="fill: url(#SVGID_6_427374);" transform="translate(-684.6815524700667, -425.8059571830338)" d="M 772.9892813 224.488181 C 756.7086596 295.9084524 723.8362775 363.3037925 678.5784511 420.8272814 C 656.6575507 448.6891291 632.4930717000001 473.9844632 603.8896531 494.4940504 C 576.5249343 514.1154493 544.9396828 543.3587585 529.3078551 573.7541181 C 519.3312384999999 593.1557652 518.4897258999999 618.9932656000001 533.2062589 635.0985581 C 546.3854991999999 649.5214877 568.7419765 652.4877565 587.5312809999999 647.1328233 C 606.3205854999999 641.7778901 622.2880633999999 629.5146358000001 637.2374161999999 616.9356801 C 708.9219943999999 556.6175416 769.0582138999998 482.6238694 813.4467479999998 400.1216595 C 829.5023780999999 370.28005790000003 843.7247435999999 338.5878144 846.8345968999998 304.8441742 C 849.9444502999999 271.1005339 840.3843062999998 234.7229328 815.1511783999998 212.10449549999998 C 805.9578768999999 203.86380709999997 791.4179331999999 197.81290719999998 781.8318545999998 205.5931919 C 776.3241861999998 210.0633569 774.5658370999998 217.5721036 772.9892813999999 224.488181 Z"/>
        </g>
        <g transform="matrix(0.2122975289267371 0 0 0.21229752892673712 -31.753475912063777 7.126707509860296)">
            <path style="fill: url(#SVGID_7_427375);" transform="translate(-350.42936634705114, -533.5694322098146)" d="M 326.995717 525.7784958 C 283.7362321 541.5938016 237.6522615 551.024757 191.47475150000002 550.3910847999999 C 168.8571587 550.0807141999999 145.57634310000003 547.6983101999999 123.76712450000002 541.4538607 C 115.43999640000003 539.0696244 79.36232140000001 532.6772142 78.79770510000003 522.5485543 C 80.17899180000003 547.3274733 81.61075030000003 572.3970557 88.93695870000003 596.1084318999999 C 96.26318950000004 619.8198805999999 110.20641130000004 642.4126054 131.50304820000002 655.1546513 C 153.89259660000002 668.5505985 181.37400940000003 669.6042361 207.45580540000003 668.9090934999999 C 232.61881720000002 668.2384413 257.7475807 666.2844812 282.7118097 663.0573537999999 C 298.2057063 661.0544453999998 314.0389773 658.4234301999999 327.5644338 650.6045747999999 C 350.29465880000004 637.4645863 345.6495502 616.9055417999999 359.1404453 598.6104339999999 C 371.76935280000004 581.4842742 400.8239313 580.3956225 414.69890050000004 596.5289104 C 420.42813400000006 603.1906455999999 424.7227288 612.6634427 433.3771381 614.1813357 C 439.55461280000003 615.2647959999999 445.4834283 611.6656217 450.72491970000004 608.2215198 C 487.7275685000001 583.9076243 524.7302197 559.5937351 561.732871 535.2798459 C 587.8043146 518.1486897000001 616.2188137 497.56999010000004 621.3413303000001 466.79714200000006 C 628.6389440000002 422.95671790000006 578.9721325 382.3995353000001 538.8289291000001 404.1026633000001 C 517.8046602000001 415.4692798000001 499.58809070000007 432.6427489000001 479.4939461000001 445.63057890000005 C 456.3755900000001 460.57310500000006 432.90920510000007 475.01509540000006 408.73757850000004 488.19979820000003 C 382.3911542 502.5707704 355.19845990000005 515.4678068000001 326.99571690000005 525.7784961 Z"/>
        </g>
        <g transform="matrix(0.2122975289267371 0 0 0.21229752892673712 -45.12582960927648 -11.335066308781052)">
            <path style="fill: url(#SVGID_8_427376);" transform="translate(-287.44062707714, -446.6076389568539)" d="M 462.1150089 379.401291 C 449.0679786 351.1891029 434.2615485 328.0317078 403.57054680000005 349.442131 C 359.29612090000006 380.3290121 313.3931873 403.5318591 262.84834780000006 423.03437740000004 C 237.23175100000006 432.91843800000004 210.24934460000006 441.74058650000006 182.87978610000005 439.5469719 C 151.00970640000006 436.99265260000004 120.80640340000005 418.5553027 103.96834120000004 391.3761528 C 93.76455020000004 410.9885102 83.45272580000004 430.8940593 78.76492680000004 452.4993055 C 74.07712780000004 474.1045517 75.61436310000003 497.9894726 87.81409200000004 516.4266291 C 98.55656130000004 532.6614653 116.55617050000005 543.0970018 135.40134230000004 547.9786057 C 154.24651410000004 552.8602096 174.02670980000005 552.6824106 193.44543810000005 551.3099875 C 306.84326560000005 543.2955691000001 416.8928523000001 494.16328940000005 498.56495920000003 415.0875978 C 480.75511720000003 413.65032540000004 469.6149654 395.6187884 462.11500900000004 379.4012908 Z"/>
        </g>
        <g transform="matrix(0.2122975289267371 0 0 0.21229752892673712 33.487088832594736 -41.88062144470959)">
            <path style="fill: rgb(170,223,235);" transform="translate(-657.7365925520851, -302.726759653404)" d="M 680.8617659 297.1968217 C 673.0135260000001 310.70934639999996 654.5576296 311.8389078 640.8588627 314.59768859999997 C 625.0672394000001 317.7779475 614.3628327 328.1361948 602.9477888 339.4690798 C 580.3927797 361.86178529999995 558.4145923 393.1922939 547.2430583 423.0872984 C 542.1092026 436.8254869 540.5124669 452.4521917 545.9682911 466.06572470000003 C 551.7493688 480.49085390000005 565.5616056 491.3829739 580.9370371 493.6415703 C 607.8183523 497.59034 636.8863778 472.1823187 654.3216545 454.5149008 C 693.1985887000001 415.12033970000005 725.3452136000001 369.1007414 748.9553818 319.0417023 C 764.6491341000001 285.7673175 776.7691436 249.1017018 771.7689738 212.6534255 C 764.8677446 162.3475846 722.2598159 119.0775618 672.0663634 111.40151589999999 C 682.8335112 152.8595402 648.6087212 197.859755 664.1154192 237.7877085 C 668.0133358 247.82439250000002 674.7908269000001 256.4767038 679.4092586 266.2028987 C 684.0276903 275.9290936 686.2694369000001 287.8862761 680.861766 297.1968218 Z"/>
        </g>
        <g transform="matrix(0.2122975289267371 0 0 0.21229752892673712 7.501520043480127 -48.498602742679026)">
            <path style="fill: rgb(170,223,235);" transform="translate(-535.3349380416261, -271.5536163227848)" d="M 422.2323449 453.7039556 C 435.6615777 460.53080689999996 452.0896609 459.2434277 466.05474549999997 453.59306439999995 C 480.0198300999999 447.9427010999999 491.99125599999996 438.3639332999999 503.5083115 428.65272209999995 C 545.2586671 393.44871349999994 584.0212281 354.70247499999994 619.2428176999999 312.96695029999995 C 609.0814352 304.69794709999996 603.4233167 291.20166919999997 604.6498571999999 278.15844439999995 C 605.8763976999999 265.11521959999993 613.9513643999999 252.91035439999996 625.4761566999999 246.68064519999996 C 632.9143211999999 242.65995579999995 641.5309798999999 241.04021159999996 648.6697763999999 236.50922739999996 C 658.8148250999999 230.07017969999995 664.652075 218.58534719999994 668.1237047999999 207.08182019999995 C 676.6634141 178.78479959999996 673.0488260999999 146.55311069999996 656.4264761 122.11245839999995 C 639.8041261 97.67180609999996 609.8851052 82.22790719999995 580.4683895 85.10971969999994 C 570.1365847 86.12187359999994 559.0890913999999 89.97988839999994 553.9128027999999 98.97859229999995 C 549.7934382999999 106.13989739999994 550.2723374999999 114.92454899999994 550.4351035999999 123.18451009999995 C 551.5247995999999 178.48378039999994 531.4353163 233.46858069999996 496.72389459999994 276.31209449999994 C 467.4887615999999 312.39635039999996 416.5532888999999 341.19495219999993 401.39218639999996 387.27517129999995 C 393.80183439999996 410.34506889999994 398.66916339999995 441.72542749999997 422.23234479999996 453.70395569999994 Z"/>
        </g>
        <g transform="matrix(0.2122975289267371 0 0 0.21229752892673712 -45.40479321960311 -49.51200551328634)">
            <path style="fill: url(#SVGID_11_427377);" transform="translate(-286.12660513945195, -266.7801138909359)" d="M 457.3666143 156.2514109 C 464.55741709999995 114.0646103 429.82383219999997 86.1207768 389.8144019 96.5390179 C 278.4062866 125.5490939 180.46896130000002 212.4901018 130.553586 315.0671416 C 123.0236395 330.54132450000003 116.3774495 346.7491414 114.45762189999999 363.8507406 C 112.5377942 380.9523414 115.79783389999999 399.1987353 126.41403019999998 412.7429911 C 143.23784289999998 434.206994 173.55845839999998 439.0543519 200.8297112 439.20549769999997 C 218.72564799999998 439.30468219999995 239.6510525 436.3089037 248.4584868 420.7299624 C 260.16840510000003 400.01699479999996 241.686973 373.84064939999996 247.12815460000002 350.6772565 C 254.11601990000003 320.9295514 296.39316230000003 309.5673989 301.96004930000004 279.5213349 C 303.77892390000005 269.7043578 301.21321220000004 259.1447726 304.8739264 249.8560421 C 310.64856130000004 235.2034182 329.1264267 230.2329784 344.85232790000003 231.0942794 C 360.57822910000004 231.9555804 376.4974503 236.5777926 391.8251672 232.9574465 C 407.8322906 229.1766285 420.4207143 217.0203428 431.1123667 204.5218984 C 443.1681599 190.4287827 454.2503155 174.533898 457.3666143 156.2514108 Z"/>
        </g>
        <g transform="matrix(0.2122975289267371 0 0 0.21229752892673712 -20.295509777598397 -55.18847601629244)">
            <path style="fill: rgb(170,223,235);" transform="translate(-404.40063107345065, -240.04183515682465)" d="M 456.5621949 173.7006815 C 440.3375045 201.983393 403.91664860000003 214.5788889 389.3480621 243.7492272 C 383.5344503 255.3896861 381.8011534 268.6485333 376.8127343 280.66577240000004 C 371.8243152 292.6830115 361.8151231 304.2547109 348.8118424 304.7162857 C 338.62014719999996 305.07805970000004 329.405163 298.559846 319.2800809 297.341549 C 301.98952139999994 295.2610646 287.04966079999997 308.535108 274.7270824 320.8414446 C 264.5949816 330.9601904 254.19810869999998 341.4728445 248.91202789999997 354.7809552 C 243.62594709999996 368.089066 244.77859059999997 385.0528953 255.49664109999998 394.5487815 C 267.3484979 405.049192 285.5814729 402.8678391 300.7475105 398.31630970000003 C 349.7630564 383.60607940000006 391.476859 351.47227200000003 430.38167869999995 318.22578130000005 C 455.07581959999993 297.12316660000005 479.15301729999993 275.29862010000005 502.57216079999995 252.78940840000007 C 518.5159653999999 237.46508740000007 534.3057429999999 221.63611690000008 545.9693223999999 202.84780570000007 C 557.6329017999999 184.05949460000005 564.9734497999999 161.83967530000007 562.4629392999999 139.86839730000008 C 561.2208678 128.99813830000008 557.5660000999999 118.38339980000009 551.6469451999999 109.18176620000008 C 540.7629352999999 92.26172180000009 522.0573751999999 80.60750930000009 502.0723287999999 78.29505270000008 C 486.7642685999999 76.52376710000009 444.29244659999995 82.07435370000009 452.6740434999999 105.87160210000009 C 456.7556652999999 117.46024920000009 463.0693250999999 125.98664200000009 464.04378519999995 138.8705415000001 C 464.95243479999993 150.88432250000008 462.58327579999997 163.2047899000001 456.56219479999993 173.7006815000001 Z"/>
        </g>
        <g transform="matrix(0.2122975289267371 0 0 0.21229752892673712 -23.32266981336909 27.58276035037028)">
            <path style="fill: url(#SVGID_13_427378);" transform="translate(-390.1415859914167, -629.9250183719564)" d="M 413.137207 663.809021 C 394.423584 676.5091553 368.9577026 671.6342163 356.2575683 652.9205933000001 C 343.5574951 634.2069703000001 348.432373 608.7411499000001 367.145996 596.0410157000001 C 385.85961900000007 583.3408815000001 411.3255004 588.2158204000001 424.02557360000003 606.9294434000001 C 436.72570790000003 625.6430664000001 431.85076890000005 651.1089478000001 413.1372069 663.809021 Z"/>
        </g>
        <g transform="matrix(0.2122975289267371 0 0 0.21229752892673712 30.707579375134742 -47.40584771647826)">
            <path style="fill: rgb(55,182,255);" transform="translate(-644.6440734280438, -276.70089727195636)" d="M 667.6396484 310.5848999 C 648.9260254000001 323.2850342 623.460144 318.4100952 610.7600708000001 299.69647219999996 C 598.0599365000002 280.9828492 602.9348755000001 255.51702879999996 621.6484985000001 242.81689459999996 C 640.3621215000001 230.11676039999995 665.8279419 234.99169929999996 678.5280761 253.70532229999995 C 691.2282103 272.4189452999999 686.3532714 297.88482669999996 667.6396484 310.5848998999999 Z"/>
        </g>
        <g transform="matrix(0.2122975289267371 0 0 0.21229752892673712 -33.66158784797483 -49.600187079512665)">
            <path style="fill: rgb(170,223,235);" transform="translate(-341.441452330541, -266.3647460499999)" d="M 365.4694214 301.7700195 C 345.9156494 315.0402832 319.30645749999996 309.9465332 306.0361939 290.3927612 C 292.7658692 270.8389282 297.8596802 244.2297973 317.4134522 230.9594726 C 336.9672242 217.6892089 363.5764161 222.7829589 376.8467408 242.3367309 C 390.1170045 261.8905639 385.0232545 288.4996948 365.4694215 301.7700195 Z"/>
        </g>
        <g transform="matrix(0.2122975289267371 0 0 0.21229752892673712 0 0)">
            <path style="fill: url(#SVGID_427379);" transform="translate(-499.99999994129223, -499.9999999800137)" d="M 862.2386604 254.1583453 C 855.1087669 243.65241930000002 847.5578002 233.54009820000002 839.6555923 223.7890286 C 839.6356518 223.75955829999998 839.6177934 223.7289668 839.5977727999999 223.69949649999998 L 839.5881628999999 223.7059832 C 774.7171990999999 143.69736939999999 684.6528824 89.61101819999999 582.3078542 70.01950719999999 C 507.86032029999996 55.766126699999994 432.7124660999999 60.884110899999996 362.69548929999996 84.1160063 C 343.30762769999995 88.93103889999999 323.1569014 97.2998867 302.91167799999994 109.02722899999999 C 286.20088989999994 117.49393749999999 269.91389769999995 127.0623392 254.15913299999994 137.7544567 C 157.40105129999995 203.4200778 92.00578829999995 302.8349722 70.01965419999993 417.6865441 C 50.42758249999993 520.0307715 67.42682729999993 623.7038056 117.82026009999993 713.5384461 L 117.81089049999993 713.5447726 C 117.83123139999992 713.5747234 117.85309389999993 713.6033128 117.87343479999993 713.6331835 C 124.01647329999993 724.5778007 130.62487039999993 735.3294995 137.75460379999993 745.8352653 C 198.33491439999992 835.0986782 287.65086139999994 897.6394051999999 391.29923009999993 924.05954 C 391.8192849999999 924.2184234 394.84944169999994 925.1189496999999 400.05936039999995 926.2011027 C 405.89608379999993 927.5637843 411.76540079999995 928.8412582999999 417.6866911999999 929.9747441 C 445.43234929999994 935.2858068999999 473.2728249999999 937.9099458999999 500.9121336999999 937.9099458999999 C 587.6868268 937.9086646 672.4511321999998 912.0414185 745.8347717999999 862.2378724999999 C 842.5934940999999 796.5728919999999 907.9893978999999 697.1579975999998 929.9755318999999 582.3070663999999 C 951.9603846999998 467.45549449999993 927.9049220999998 350.9170674999999 862.2386602999999 254.15834519999993 Z M 813.1023607 243.1237956 C 840.8049345 285.068218 834.3855318 347.5520865 794.9220611 419.279863 C 753.2497586 495.02625279999995 680.3645515999999 570.6291351 589.6933707 632.1644279 C 499.02347109999994 693.6984394 401.84575779999994 733.5089869999999 316.06408609999994 744.2605257 C 234.82997179999995 754.4384343 174.39036589999995 737.3302775 145.64511969999995 696.0915409 C 140.39820289999994 686.6487884000001 135.53520099999994 677.0486741000001 131.08854739999995 667.2988859000001 C 154.83745459999994 678.9950762000001 184.34997009999995 684.9900423 218.62306209999997 684.9893216 C 235.74787599999996 684.9893216 254.06239359999998 683.4940236 273.43271719999996 680.468832 C 296.2063012 676.9122939 319.82891859999995 671.3093309000001 343.9364346 663.8788882 C 352.52534879999996 675.5879717 365.01899929999996 683.5087587 379.3586285 686.2539824 C 382.9937274 686.949738 386.64035820000004 687.2931312000001 390.2613626 687.2931312000001 C 403.0421492 687.2931312000001 415.4940772 683.0082500000001 425.86299329999997 674.7991541 C 434.89932769999996 667.6450664 441.5923438 657.8326322 444.95812209999997 646.8095724 C 447.452933 638.6389661 448.07154169999995 630.2959076 446.98674819999997 622.2282079 C 479.65563019999996 605.9778134000001 512.3422903999999 586.8761661 544.2591188 565.2155669 C 634.3050166 504.1050309 707.8641967 429.8404853 751.3867223 356.1032019 C 781.296126 305.4282796 794.8655229 258.53628829999997 791.7199674999999 218.9604621 C 799.1387180999999 226.6942568 806.2646076 234.7596726 813.1023605999999 243.1237956 Z M 665.6462637 263.9873945 C 672.0820021 274.5914605 669.4272530999999 288.6655022 659.5685678 296.1935344 C 648.2924479 304.80391089999995 632.1931038 302.0736212 624.3312379 290.48691149999996 C 616.7291787 279.2856303 619.6582715000001 263.98861639999996 630.8582714 256.3878385 C 635.0712447000001 253.52857759999998 639.8620924 252.15948939999998 644.6068126 252.15948939999998 C 652.8700352 252.15948939999998 660.9891716 256.31397649999997 665.6462637 263.98739459999996 Z M 627.6239046 331.4383926 C 633.155274 333.1521553 638.9264099 334.0337821 644.7298191 334.0337821 C 655.8119376999999 334.0337821 667.0080937 330.8343313 676.8498966 324.1554616 C 703.0156896999999 306.3976766 709.8566460999999 270.6630013 692.1001424 244.4959268 L 692.0988611 244.49528610000002 C 689.4419683 240.58045950000002 686.3757746 237.10808790000002 683.0063088 234.07600920000002 C 695.1714614000001 199.0036952 696.7270614 167.26809310000002 687.455445 140.8115209 C 702.9109852 148.8516061 717.8059895 157.8734622 732.0583433 167.8370332 C 737.2625345 171.4751922 741.8810461 175.9275531 745.4546392000001 181.17629 C 745.4758823000001 181.207491 745.497098 181.238706 745.5182862 181.26993489999998 C 757.4550439000001 198.85858589999998 761.6795491 221.34251199999997 758.0739204 248.0957894 C 754.3478479 275.7370201 742.5943187 306.466227 723.1375061 339.430693 C 682.0277020999999 409.0812129 611.958832 479.62801460000003 525.8388923 538.0746906 C 495.4619678 558.6899747000001 464.42428359999997 576.888533 433.4641191 592.362529 C 414.7125119 570.7048928 382.21212330000003 565.9942876 357.936274 582.4697937 C 345.26019590000004 591.0725622 336.6933043 604.0958774999999 333.81290160000003 619.1423937 C 332.92839180000004 623.763707 332.61823280000004 628.4053611999999 332.85487620000004 632.9869537 C 310.78017100000005 639.7184374 289.17947330000004 644.8107152 268.3715111 648.0604576999999 C 230.55149090000003 653.9673333 197.65429410000002 653.5380918 170.5915784 646.7945156 C 144.3982369 640.2636382 125.0644309 628.0347399999999 113.1276732 610.4460889999999 C 113.10644980000001 610.4148279999999 113.0852497 610.3835469999999 113.06407300000001 610.3522459 C 109.5059911 605.0930702999999 107.07404260000001 599.1568398999999 105.61514400000002 592.9769944999999 C 101.62097960000001 576.0578489999999 98.73842850000001 558.8895176 96.97465880000001 541.5629184 C 120.15025630000001 561.7036343999999 154.0003532 572.1216298999999 196.0654598 572.1205888999999 C 211.07545850000002 572.1205888999999 227.1374192 570.7931434999999 244.1238508 568.1113450999999 C 317.30376090000004 556.5512948999999 400.5106243 521.0677578999998 478.41603480000003 468.19609609999986 C 538.3380683 427.52962809999985 589.8461676000001 380.14881399999985 627.6239043 331.4383923999999 Z M 412.8221722 639.3787162 C 411.6702075 642.2301315 409.9490297 644.8435182 407.7845064 647.0281077 C 401.7857088 653.0825173 393.5784625 655.5816975 385.5256116 654.0365247 C 377.4675113 652.4941665 370.7635624 647.1401225999999 367.426974 639.2972913 C 366.223128 636.4675862 365.5895316 633.4033607 365.57248219999997 630.3282695 C 365.525202 621.8006442000001 369.5615006 614.2228105 376.35585999999995 609.6119512 C 380.56947399999996 606.7533309 385.36032159999996 605.3836021000001 390.10504189999995 605.3836021000001 C 397.97489649999994 605.3836021000001 405.71277539999994 609.1519581000001 410.4549329999999 616.1389847 C 415.0669446999999 622.9334376 416.01712159999994 631.4703773 412.8221722999999 639.3787162 Z M 618.2786925 112.6479931 C 631.7104279 118.44291349999999 642.1249799000001 126.67770349999999 649.227245 137.14326799999998 C 662.9269360000001 157.33035169999997 663.9963559 186.2586662 653.0546217 220.00377519999998 C 639.3177724999999 217.96039349999998 624.8097301 220.850406 612.438045 229.24632169999998 C 586.2722519 247.00410669999997 579.4312955 282.73878199999996 597.1890805 308.90649709999997 C 598.1838637000001 310.37224469999995 599.2533637 311.7553473 600.3560980000001 313.0988892 C 564.8622304 358.4457713 516.4417869000001 402.7477386 459.9958088000001 441.0552202 C 386.0009805000001 491.2726319 307.5176956000001 524.8886481 239.00562670000008 535.7106592 C 175.72389750000008 545.7087829 127.85706350000008 534.3909017 107.68271300000009 504.6649668 C 100.58004750000009 494.1994824 96.7738926000001 481.4794391 96.3496162000001 466.8566386 C 97.5534144000001 452.5260587 99.4946911000001 438.1760188 102.2364712000001 423.8535272 C 102.90836230000009 420.3435169 103.6303849000001 416.8514451 104.3895658000001 413.37322759999995 C 122.0437242000001 435.30026089999996 151.7139218000001 446.69734349999993 190.2636526000001 446.69558169999993 C 202.29330580000013 446.69558169999993 215.19425530000012 445.58531969999996 228.8543856000001 443.3398100999999 C 284.7550028000001 434.1496373999999 348.3322360000001 406.8996090999999 407.9987266000001 366.58254049999994 C 408.5512149000001 366.2148022999999 408.89845200000013 365.98016089999993 408.9993558000001 365.91169049999996 C 468.9547837000001 325.2221588 518.1368905000002 275.92409269999996 547.4854773000001 227.09883289999996 C 577.4740824 177.20767679999994 583.7750434000001 132.51899169999996 565.5909799000001 100.36744179999997 C 569.1089984000001 100.94723819999997 572.6260559000001 101.56347199999996 576.1408711000001 102.23632409999996 C 590.4636830000002 104.97810419999996 604.5164571000001 108.47393989999996 618.2786925000001 112.64799309999997 Z M 499.1490403 94.8950131 C 499.1819974 94.8950131 499.21495480000004 94.8950175 499.24791270000003 94.8950262 C 508.85407580000003 94.89757780000001 518.2956694000001 97.9353804 525.914442 103.7862502 C 529.6341793 106.64283879999999 532.7550443 109.9204757 535.2565791 113.60673919999999 C 549.4702387 134.5511618 543.6812444 169.7579342 519.3720808999999 210.1995309 C 492.4222012999999 255.03468660000001 446.68187449999994 300.6950111 390.57944969999994 338.7699335 L 390.57912939999994 338.7695331 C 357.01756929999993 361.546881 293.6301313999999 394.6074458 266.41622019999994 386.3704936 C 261.72275269999994 384.94951199999997 258.91410379999996 382.36189049999996 257.02351919999995 377.71711309999995 C 249.89650859999995 360.20958549999995 270.71784469999994 336.50312199999996 302.59663399999994 311.0189899999999 C 313.51202119999994 320.5101922999999 327.42969629999993 325.5360816999999 341.5296389999999 325.5360816999999 C 352.96732339999994 325.5360816999999 364.52224829999994 322.2341253999999 374.67925539999993 315.34127569999987 C 397.7823783999999 299.66202859999987 406.2707891999999 270.40753859999984 396.7711782999999 245.3702661999999 C 404.2842659999999 240.43062549999988 411.8387561999999 235.4603131999999 419.3831560999999 230.45140119999988 C 485.13398489999986 186.80202509999987 488.7396134999999 139.6386346999999 471.8479993999999 112.51313439999988 C 468.1879147999999 106.63524859999988 463.4630549999999 101.46352919999988 457.88347599999986 97.03241149999988 C 471.55441739999986 95.62200079999988 485.32265889999985 94.89501309999989 499.14904019999983 94.89501309999989 Z M 363.2761667 251.5463787 C 371.44649039999996 263.5862825 368.29893289999995 280.02879459999997 356.25902909999996 288.1991183 C 343.2760461 297.0119605 325.1731898 292.6585627 317.8439972 278.1887395 C 315.7450631 274.0448717 314.7836163 269.3736464 315.09530589999997 264.7389928 C 315.6548967 256.4181832 319.87325689999994 249.1117786 326.6227864 244.53052250000002 C 331.1522452 241.45664080000003 336.3018619 239.98504720000003 341.4021479 239.98504720000003 C 349.8607681 239.98504720000003 358.179084 244.03593380000004 363.2761667 251.54637870000002 Z M 272.5793594 164.8966141 C 304.03859719999997 143.546334 337.757359 126.9613553 372.8711557 115.29952039999999 C 409.8732947 106.66087499999999 435.38665679999997 116.0112925 444.00367989999995 129.85256909999998 C 453.8467641 145.65890689999998 444.44189059999997 174.44435449999997 401.24225709999996 203.12345269999997 C 393.16466879999996 208.4858483 385.0707437 213.80708149999998 377.03615959999996 219.09035559999998 C 357.36905079999997 204.30915219999997 329.67224289999996 202.81946 308.20320059999995 217.38900569999998 C 286.35080409999995 232.2199402 277.56504739999997 259.1980889 284.71640299999996 283.2626008 C 277.37140819999996 289.0620859 270.48696709999996 294.8228913 264.207228 300.551023 C 250.85845799999998 312.7273871 210.23619549999998 349.78117929999996 226.64218999999997 390.0843936 C 229.54749829999997 397.2214945 233.75462559999997 403.2149392 239.08835159999998 407.9440434 C 233.83566889999997 409.1164493 228.64521019999998 410.1319738 223.53307199999998 410.9724383 C 176.96869769999998 418.6244689 142.11620969999996 411.0038306 127.90255009999997 390.059408 C 126.13936159999997 387.4615359 124.67831969999997 384.6525952 123.52089339999998 381.6408951 C 119.45899119999997 371.07155620000003 119.98798939999998 359.3130013 124.19217459999997 348.79944820000003 C 153.88500359999998 274.5455524 204.93760019999996 210.80129700000003 272.5793591 164.89661420000002 Z M 197.7829066 769.6484787 C 219.85953379999998 776.4330571 244.95238329999998 779.9090323 272.6543165 779.9080713000001 C 287.736069 779.9080713000001 303.5955815 778.8817357 320.14380239999997 776.8072819 C 410.9674601 765.4227722 513.2371307999999 723.6940917000001 608.1135971 659.3053039 C 702.9887821 594.9177974 779.5385583 515.2902956 823.662022 435.091326 C 846.4670784 393.640291 859.3464857 354.3005477 862.2027035 318.7436552 C 894.9396555 383.8295601 909.3114778 455.93516509999995 903.9969715 528.7025709 C 899.6384885 521.3522906999999 894.4436253 514.8478405 888.3506383 509.63007369999997 C 871.6922241 495.36388 850.6709224 492.4994938 829.1588759 501.5596928 C 785.7567942000001 519.8466621 772.2837363 563.6831106 756.6836906999999 614.4412384 C 741.9280335999999 662.4509393 723.5654665999999 722.200075 674.0835313 778.8945487999999 C 617.8144551 843.3679036 554.7672071 882.1072694999999 486.69334890000005 894.0376206 C 447.68786940000007 900.8753737 418.11296970000006 896.4509829 406.37962130000005 893.9984602999999 C 386.03797870000005 889.1874318999999 366.2643603000001 882.9010458999999 347.1977891 875.1819863999999 C 348.05819410000004 875.1887132999999 348.90210210000004 875.2189043999999 349.7672319 875.2189043999999 C 361.5816237 875.2189043999999 373.8387109 874.5872146999999 386.4930066 873.3161472999999 C 444.3015863 867.5120173999999 507.7601373 848.6707179999999 571.301974 818.5768044999999 C 581.741888 824.5400650999999 595.3904722 823.8551987999998 605.36804 815.1142947999998 C 615.4703655 806.2640961999998 618.2190429999999 791.3395848999999 611.9478435999999 779.4629247999998 C 603.6133825999999 763.6787734999998 583.7321043 759.0216789999997 569.3818389999999 768.7606054999998 C 562.1842758999999 773.6452295999998 557.8709592999999 781.1652844999998 556.7890464999999 789.1562236999998 C 496.7874911999999 817.5263640999998 437.19795969999996 835.2587629999998 383.21539529999995 840.6784174999998 C 324.61303919999995 846.5609479999998 276.78272269999997 837.5814720999998 244.89200109999996 814.7048220999998 L 244.86301129999995 814.7452636999998 C 228.06116959999994 801.0892175999998 212.32698599999995 786.0163541999998 197.78290649999997 769.6484788999998 Z M 727.4145455 835.0969966 C 681.3338687 866.3702831 630.4082886 887.4275418 577.3428275 897.7371058 C 581.1284813 895.8222563 584.8969974 893.8321293 588.6439714 891.7543121 C 627.8343611 870.0218789 664.8964818000001 839.3074072 698.7975912 800.4642546 C 752.8692072 738.5099708 772.3695845000001 675.060389 788.03754 624.0780305000001 C 802.3037337000001 577.6622890000001 812.6106550000001 544.1263553000001 841.8951759 531.7885451000001 C 852.0432138 527.5115059000001 859.7939058000001 528.3610197 867.0154136 534.5446599 C 875.8303203 542.0936245 882.4695892 556.4574185 885.9279862999999 572.8638235000001 C 890.4161958999999 594.1555898 888.5581693999999 616.3030786 881.2528399999999 636.7997978000001 C 852.5926870999999 717.2122022000001 799.3897527999999 786.2504282000001 727.4145454999999 835.0969965 Z"/>
        </g>
    </g>
</g>
<g transform="matrix(1.9211538461538462 0 0 1.9211538461538462 867.58051846033 457.6463149992448)" id="text-logo"  >
<g style=""  paint-order="stroke"   >
		<g transform="matrix(1 0 0 1 0 0)" id="text-logo-path-0"  >
<path style="stroke: none; stroke-width: 0; stroke-dasharray: none; stroke-linecap: butt; stroke-dashoffset: 0; stroke-linejoin: miter; stroke-miterlimit: 4; fill: rgb(14,15,27); fill-rule: nonzero; opacity: 1;"  paint-order="stroke"  transform=" translate(-79.60499999999999, 66.025)" d="M 17.36 0 L 56.59 0 L 56.59 -18.86 L 22.64 -18.86 L 22.64 -110.36 L 16.03 -113.19 L 56.59 -113.19 L 56.59 -132.05 L 17.36 -132.05 C 9.43 -132.05 3.77 -126.39 3.77 -118.47 L 3.77 -13.58 C 3.77 -5.66 9.43 0 17.36 0 Z M 134.69 0 L 155.44 0 L 155.44 -132.05 L 136.58 -132.05 L 136.58 -55.65 L 115.83 -132.05 L 88.48 -132.05 L 95.08 -129.22 L 95.08 0 L 113.94 0 L 113.94 -76.4 Z" stroke-linecap="round" />
</g>
</g>
</g>
</svg>